# xmcd CD database file
#
# Track frame offsets:
#	182
#	20210
#	38405
#	60352
#	81100
#	100675
#	118990
#	140902
#	158205
#	178157
#	198675
#
# Disc length: 2911 seconds
#
# Revision: 1
# Processed by: cddbd v1.5.1PL0 Copyright (c) Steve Scherf et al.
# Submitted via: CDex 1.50
#
DISCID=990b5d0b
DTITLE=Claude Tissendier - Saxomania
DYEAR=1900
DGENRE=Jazz
TTITLE0=The Return Of The Redhead
TTITLE1=Just Friends
TTITLE2=Keester Parade
TTITLE3=Fascination Rhythm
TTITLE4=Saxomania
TTITLE5=Angel Eyes
TTITLE6=A Child Is Born
TTITLE7=Hershey Bar
TTITLE8=Autumn in New York
TTITLE9=You'd Be So Nice To Come Home To
TTITLE10=Be My Guest
EXTD=
EXTT0=
EXTT1=
EXTT2=
EXTT3=
EXTT4=
EXTT5=
EXTT6=
EXTT7=
EXTT8=
EXTT9=
EXTT10=
PLAYORDER=
